# xmcd CD database file
#
# Track frame offsets:
#	150
#	15160
#	62260
#	108402
#	141052
#	170162
#
# Disc length: 2722 seconds
#
# Revision: 0
# Processed by: cddbd v1.5.2PL0 Copyright (c) Steve Scherf et al.
# Submitted via: CDex 1.50beta8
#
DISCID=420aa006
DTITLE=Jérôme Berney Trio - Suite mordorée
DYEAR=2007
DGENRE=Jazz
TTITLE0=Ouverture
TTITLE1=Flux et reflux
TTITLE2=Spirale - Nougaro
TTITLE3=Icare
TTITLE4=Carrousel
TTITLE5=Juliette
EXTD=YEAR: 2007
EXTT0=
EXTT1=
EXTT2=
EXTT3=
EXTT4=
EXTT5=
PLAYORDER=
